<?xml version="1.0" encoding="utf-8"?>
<!-- Generator: Adobe Illustrator 22.0.1, SVG Export Plug-In . SVG Version: 6.00 Build 0)  -->
<svg version="1.1" id="Layer_1" xmlns="http://www.w3.org/2000/svg" xmlns:xlink="http://www.w3.org/1999/xlink" x="0px" y="0px"
	 viewBox="0 0 662 408" style="enable-background:new 0 0 662 408;" xml:space="preserve">
<style type="text/css">
	.st0{opacity:0.35;fill:#E6E6E6;}
	.st1{opacity:0.5;fill:#5E6462;}
	.st2{fill:#4ABDAC;}
	.st3{opacity:0.5;}
	.st4{fill:#D3D3D3;}
	.st5{fill:#F7B733;}
	.st6{fill:#FFE3CA;}
	.st7{fill:#5E6462;}
	.st8{fill:#FCD2B1;}
	.st9{fill:#FFFFFF;}
</style>
<path class="st0" d="M551.9,376.2c-2.7,0,93.7-208.8-9.8-179.1s-120.4,38.6-102.6-31.9S403-68.5,318.2,42.2S115.7,85,101.4,146.6
	s53.5,75.8,10.7,102.6S96,376.2,96,376.2H551.9z"/>
<path class="st1" d="M645.6,403H21.9c-5.1,0-9.3-4.2-9.3-9.3v-8.1c0-5.1,4.2-9.3,9.3-9.3h623.7c5.1,0,9.3,4.2,9.3,9.3v8.1
	C654.9,398.9,650.7,403,645.6,403z"/>
<g>
	<rect x="166.8" y="324.1" class="st2" width="44.4" height="52.3"/>
	<g>
		<path class="st2" d="M168.1,371.5c-10.1,0-18.4-8.2-18.4-18.4s8.2-18.4,18.4-18.4s18.4,8.2,18.4,18.4S178.2,371.5,168.1,371.5z
			 M168.1,338.8c-7.9,0-14.4,6.4-14.4,14.4s6.4,14.4,14.4,14.4s14.4-6.4,14.4-14.4S176,338.8,168.1,338.8z"/>
	</g>
</g>
<g class="st3">
	<path class="st2" d="M195.9,321.5c-0.5,0-0.9-0.2-1.2-0.6c-0.2-0.3-4.8-6.5-3.4-13.3c0.8-3.9,3.4-7.2,7.6-9.7
		c5-2.9,5.3-4.8,5.2-5.4c-0.2-1.6-3.4-3-4.9-3.4c-0.8-0.2-1.3-1-1.1-1.8c0.2-0.8,1-1.3,1.8-1.1c0.7,0.2,6.5,1.9,7.1,5.9
		c0.4,2.8-1.8,5.5-6.7,8.4c-3.5,2.1-5.6,4.7-6.2,7.7c-1.1,5.5,2.9,10.8,2.9,10.9c0.5,0.7,0.4,1.6-0.3,2.1
		C196.6,321.4,196.3,321.5,195.9,321.5z"/>
</g>
<g class="st3">
	<path class="st2" d="M179.4,320c-0.7,0-1.3-0.5-1.5-1.1c-0.2-0.8,0.3-1.6,1.1-1.8c2.2-0.5,2.5-1.1,2.5-1.1c0-0.4-0.5-1.9-8.7-6.7
		c-2.3-1.3-2.6-2.9-2.6-4c0.3-5,11.3-9.9,13.5-10.8c0.8-0.3,1.6,0,2,0.8c0.3,0.8,0,1.6-0.8,2c-5.5,2.4-11.6,6.2-11.7,8.3
		c0,0.4,0.3,0.8,1.1,1.2c6.7,3.9,10.6,6.8,10.1,9.7c-0.4,2.5-3.7,3.3-4.7,3.6C179.7,320,179.6,320,179.4,320z"/>
</g>
<g class="st3">
	<path class="st2" d="M187.8,287.1c-0.4,0-0.7-0.1-1-0.4c-0.6-0.6-0.6-1.5-0.1-2.1c0.8-0.8,2.9-3.7,2.4-5.5
		c-0.2-0.8-1.1-1.5-2.5-1.9c-2.6-0.8-3.4-2.3-3.6-3.5c-0.8-4.3,5.9-9.7,7.3-10.8c0.7-0.5,1.6-0.4,2.1,0.3s0.4,1.6-0.3,2.1
		c-2.7,2.1-6.5,6-6.2,7.9c0.1,0.5,0.6,0.8,1.5,1.1c2.5,0.8,4,2.1,4.5,4c1,3.8-2.7,7.8-3.1,8.3C188.6,287,188.2,287.1,187.8,287.1z"
		/>
</g>
<g>
	<g>
		<g>
			<path class="st4" d="M396.8,261.3c0.9-12.2,1.5-23.6,1.9-34.2c-2.9-1.6-6.5-3.4-9.3-4.7c-8.7-4.2-20.9-9.8-28.7-13.4
				c-4.6-2.1-9.1-3.6-9.1-3.6s-31.2-3-33.8-2.8c-0.8,0-4.7,1.4-9.8,3.4c-11.1,4.2-32.4,12.8-35.8,15.2c-5,3.6-22.8,91-23.3,97
				c-0.5,5.8,24.3,13.7,47.2,19.7c0,8.9-0.2,21.3-0.4,32.6c0,1.9-0.1,3.8-0.1,5.7h100.2c-0.1-1.9-0.3-3.9-0.4-5.7c0-0.2,0-0.5,0-0.7
				c-0.4-7.7-1.9-21.4-1.5-34.8c0,0-0.2-14.1,1.2-20.2C395.2,287.9,396.8,261.3,396.8,261.3z M269.7,312.8
				c0.2-11.4,15.3-32.6,15.3-32.6s0.7-0.3,0.7-0.3c0,0,0.8-0.1,0.8-0.1c0,0,2.4-2.2,2.4-2.2c0.6,2,5.6,30.6,6.8,47.3
				C281.5,322.1,269.6,318.2,269.7,312.8z"/>
		</g>
	</g>
	<g>
		<g>
			<path class="st5" d="M398.6,370.5c-0.7-4.7-1.3-9.5-1.8-14.1c0,0,0,0,0-0.1c-0.2-1.5-0.4-3.1-0.5-4.6c0-0.1,0-0.2,0-0.2
				c-0.7-6.4-1.3-12.5-1.8-18.1c-0.3-4.3,0-8.5,0.6-12.6c1.7-28.7,2.6-59,2.6-59c0.9-12.4,1.4-24,1.8-34.8c0,0-39.2-18.5-42.8-19.6
				c0,0,7.4,17.5,13,56.5c2.1,15,6.1,40.2,9,66v0c1.6,13.9,4.5,28.1,6.7,40.6c0.3,1.9,0.7,3.8,1,5.7h13.1
				C399.2,374.3,398.9,372.4,398.6,370.5z"/>
		</g>
	</g>
	<g>
		<g>
			<path class="st5" d="M333.3,324.4c1.5-14.5,2.9-29,2.3-36.9c-5.4-63.8-20.7-80.7-22.9-83.2c-1.7,0.7-8.2,3.1-10.2,3.9
				c-10.5,4.1-31.8,11.7-34.7,13.8c-5,3.6-24.6,95.3-25.2,101.2c-0.4,4,25.3,12.4,51.4,19.9c-0.2,7.2,0.4,17.3-1.9,27.9
				c-0.4,1.9-1,3.1-1.1,5.5l36.5-0.1c0.2-1.9,0.5-3.8,0.7-5.7c0.7-5.7,1.4-11.5,2.1-17.8c10.9,2.8,18.4,4.7,18.4,4.7
				s10.3-17.4,13.3-24.4C362.4,331.8,349.2,328.6,333.3,324.4z M286.1,302.4c-0.3-13.1-0.3-22.2-0.3-22.2c1.3,4.5,3.1,17.3,4.7,30
				C285.2,307.6,286.2,305.1,286.1,302.4z"/>
		</g>
	</g>
	<g>
		<g>
			<path class="st6" d="M316.2,203.6c0,0,4-7.5,2.9-28.8c-0.3-5.9,31,14,31,14s-0.1,2-0.2,4.8c0,1.1-0.1,2.4-0.1,3.7
				c0,0.4,0,0.7,0,1.1c0,0.6,0,1.2,0,1.7c0,0.7,0,1.4,0.1,2.1c0,0.8,0.1,1.5,0.2,2.2c0.1,1.3,0.9,3.6,1.2,4.2
				C352.7,211.8,327.9,212,316.2,203.6z"/>
		</g>
	</g>
	<g>
		<path class="st6" d="M348.6,210l-6.2,7.2c0,0-9.9-1.9-12.8-7.1C326.7,204.9,348.6,210,348.6,210z"/>
	</g>
	<g>
		<g>
			<path class="st5" d="M407.9,284.8c-8.9-12.8-17.3-15.9-17.3-15.9s-26.2-30.7-5.2-44.4c0,0,9-0.2,14,2.5
				c5.1,2.8,15.9,25.4,17.8,29.4c1.8,4,2.1,10.2,3.4,11.1C420.6,267.4,422.9,283.4,407.9,284.8z"/>
		</g>
	</g>
	<g>
		<path class="st6" d="M374.1,365.1c0,0-2.7-0.1-3.8-0.7c0,0-2-1.3-3.5-2.1c-0.5-0.3-0.9-0.5-1.2-0.6c-1.2-0.5-3.9-1.1-6.4-3
			c-2.5-1.9-10.7-9.5-10.7-9.5l5.3-8.1l2.4-8c0,0,19,1.9,21.6,3.4c0.2,0.1,0.5,0.3,0.7,0.5c2,1.5,2.9,3.4,3.9,4.3
			c0.4,0.3,3.7,3.9,3.5,5.3c-0.3,2-1.2,3.3-2.5,3.9c0,0-0.7,3.9-2.7,5.6c0,0-0.5,3.6-3.6,5.1C377.2,361.1,376.3,364.7,374.1,365.1z"
			/>
	</g>
	<g>
		<path class="st6" d="M332.8,120.2c0,0,31.6-16,34.5,28.1c2.9,44-4.3,49.4-26.7,45.7c-22.4-3.6-27.4-31.1-31.7-44.1
			C304.6,137,322.3,123.4,332.8,120.2z"/>
	</g>
	<g>
		<path class="st6" d="M325.7,150c-0.5-3.8-8.1-5.1-8.6,0.6c-0.5,5.8,3.7,15.8,6.5,14.7C326.5,164.3,326.4,155.2,325.7,150z"/>
	</g>
	<g>
		<path class="st7" d="M316,171.2c0,0-2.5-13.5,2.3-15.1c4.7-1.6,6.8,3.5,6.8,3.5l5.1-0.3c0,0-4.5-11.2-0.1-14.5
			c4.3-3.2,33-1.5,36-5.9c3-4.4,16-21.6-13.4-22.6c-11.3-0.4-29-4-36.9,8.6c0,0-10.7,4.5-10.6,8.2
			C305.2,142.6,311.4,165.3,316,171.2z"/>
	</g>
	<g>
		<path class="st5" d="M362.8,333l-14.2,24.4c0,0-37.6-9.7-46.4-12.2l20.1-23.9C322.3,321.4,351.9,328.1,362.8,333z"/>
	</g>
	<g>
		<path class="st8" d="M349.9,199.8L349.9,199.8c-18.5-1.9-25.6-16.1-25.6-16.1c11.6,11.5,25.5,11.2,25.5,11.2c0,0.4,0,0.7,0,1.1
			c0,0.6,0,1.2,0,1.7C349.9,198.4,349.9,199.1,349.9,199.8z"/>
	</g>
</g>
<g>
	<path class="st6" d="M353.8,200.8c0,0,1,1.8,1.8,2.4c0,0,1.6,1,2.6,1.7c0.3,0.2,0.6,0.5,0.8,0.6c0.7,0.7,2.1,2.3,4.2,3.5
		c2.2,1.1,10.2,4.3,10.2,4.3l3.9-6.4l4.8-4.4c0,0-7.6-12.7-9.5-14c-0.2-0.1-0.4-0.2-0.6-0.3c-1.7-0.9-3.4-0.9-4.3-1.3
		c-0.4-0.1-3.9-1.3-4.9-0.7c-1.3,0.8-1.9,2-1.9,3c0,0-2.5,1.8-3.1,3.7c0,0-2.4,1.5-2.3,4.2C355.6,197.3,353.4,199.2,353.8,200.8z"/>
</g>
<path class="st5" d="M382.8,199.1c0,0,31,47,32.8,60.5c1.8,13.5-6.7,19.3-14,14.9c-7.2-4.4-31-60-31-60L382.8,199.1z"/>
<path class="st2" d="M475.1,64.9c-47.2,0-85.4,22.1-85.4,49.4c0,10.6,5.8,20.5,15.7,28.5l-1.3,11.1l10.5-4.8
	c15.5,9,36.9,14.5,60.5,14.5c47.2,0,85.4-22.1,85.4-49.4S522.3,64.9,475.1,64.9z"/>
<circle class="st9" cx="425.3" cy="112.8" r="4.6"/>
<circle class="st9" cx="445.3" cy="112.8" r="4.6"/>
<circle class="st9" cx="465.3" cy="112.8" r="4.6"/>
<circle class="st9" cx="485.2" cy="112.8" r="4.6"/>
<circle class="st9" cx="505.2" cy="112.8" r="4.6"/>
<circle class="st9" cx="525.2" cy="112.8" r="4.6"/>
<g>
	<polygon class="st7" points="448.2,283.1 438.2,376.4 570.2,376.4 580.2,283.1 	"/>
</g>
<g>
	
		<rect x="427.6" y="368" transform="matrix(-1 -1.224647e-16 1.224647e-16 -1 877.3499 744.3128)" class="st7" width="22.1" height="8.4"/>
</g>
<g>
	<path class="st4" d="M501.9,328.2c-1.1,5.2,1.4,10.1,5.4,10.9c4,0.8,8.2-2.7,9.3-7.9c1.1-5.2-1.4-10.1-5.4-10.9
		C507.1,319.5,502.9,323,501.9,328.2z"/>
</g>
</svg>
