<?xml version="1.0" encoding="utf-8"?>
<!-- Generator: Adobe Illustrator 22.0.1, SVG Export Plug-In . SVG Version: 6.00 Build 0)  -->
<svg version="1.1" id="Layer_1" xmlns="http://www.w3.org/2000/svg" xmlns:xlink="http://www.w3.org/1999/xlink" x="0px" y="0px"
	 viewBox="0 0 584.9 151.1" style="enable-background:new 0 0 584.9 151.1;" xml:space="preserve">
<style type="text/css">
	.st0{fill:#FFFFFF;}
	.st1{opacity:0.35;fill:#E6E6E6;}
	.st2{opacity:0.5;fill:#5E6462;}
	.st3{fill:#4ABDAC;}
	.st4{opacity:0.5;}
	.st5{fill:#D3D3D3;}
	.st6{fill:#F7B733;}
	.st7{fill:#FFE3CA;}
	.st8{fill:#5E6462;}
	.st9{fill:#FCD2B1;}
	.st10{fill:none;}
</style>
<g>
	<g>
		<path class="st8" d="M287.5,37.9h-36.4v98.9h-24.5V37.9h-35.9V18.1h96.7V37.9z"/>
		<path class="st8" d="M332.5,136.8c-1.1-2.1-1.9-4.8-2.4-7.9c-5.7,6.4-13.1,9.5-22.3,9.5c-8.6,0-15.8-2.5-21.5-7.5
			c-5.7-5-8.5-11.3-8.5-18.9c0-9.3,3.5-16.5,10.4-21.5c6.9-5,16.9-7.5,30-7.6h10.8v-5.1c0-4.1-1-7.3-3.1-9.8
			c-2.1-2.4-5.4-3.7-9.9-3.7c-4,0-7.1,1-9.3,2.9c-2.3,1.9-3.4,4.5-3.4,7.8h-23.6c0-5.1,1.6-9.8,4.7-14.2c3.2-4.3,7.6-7.8,13.4-10.2
			c5.8-2.5,12.2-3.7,19.4-3.7c10.9,0,19.5,2.7,25.9,8.2c6.4,5.5,9.6,13.1,9.6,23v38.2c0.1,8.4,1.2,14.7,3.5,19v1.4H332.5z
			 M313,120.4c3.5,0,6.7-0.8,9.6-2.3c2.9-1.5,5.1-3.6,6.5-6.2V96.7h-8.8c-11.8,0-18.1,4.1-18.8,12.2l-0.1,1.4c0,2.9,1,5.4,3.1,7.3
			C306.6,119.5,309.4,120.4,313,120.4z"/>
		<path class="st8" d="M413.8,112.4c0-2.9-1.4-5.1-4.3-6.8c-2.9-1.7-7.4-3.1-13.7-4.4c-21-4.4-31.5-13.3-31.5-26.7
			c0-7.8,3.2-14.4,9.7-19.6c6.5-5.2,15-7.9,25.5-7.9c11.2,0,20.2,2.6,26.9,7.9c6.7,5.3,10.1,12.1,10.1,20.5h-23.6
			c0-3.4-1.1-6.2-3.3-8.4c-2.2-2.2-5.6-3.3-10.2-3.3c-4,0-7,0.9-9.2,2.7c-2.2,1.8-3.3,4.1-3.3,6.8c0,2.6,1.2,4.7,3.7,6.3
			c2.5,1.6,6.6,3,12.5,4.2c5.9,1.2,10.8,2.5,14.8,4c12.4,4.6,18.7,12.5,18.7,23.7c0,8-3.5,14.6-10.4,19.5c-6.9,5-15.8,7.5-26.7,7.5
			c-7.4,0-14-1.3-19.7-4c-5.7-2.6-10.2-6.3-13.5-10.8c-3.3-4.6-4.9-9.6-4.9-14.9h22.3c0.2,4.2,1.8,7.4,4.6,9.6
			c2.9,2.2,6.7,3.3,11.6,3.3c4.5,0,7.9-0.9,10.2-2.6C412.7,117.4,413.8,115.2,413.8,112.4z"/>
		<path class="st8" d="M479.1,101.4l-8.5,8.5v26.9h-23.6V11.6h23.6V81l4.6-5.9l22.6-26.5h28.3l-31.9,36.8l34.7,51.4h-27.1
			L479.1,101.4z"/>
		<path class="st8" d="M581,70.7c-3.2-0.4-6-0.7-8.5-0.7c-8.9,0-14.8,3-17.5,9v57.7h-23.6V48.6h22.3l0.7,10.5
			C559.1,51,565.6,47,574,47c2.6,0,5.1,0.4,7.3,1.1L581,70.7z"/>
	</g>
	<g>
		<g>
			<path class="st3" d="M69.3,121.9L27.2,79.8c-2.5-2.5-2.5-6.6,0-9.2l9.2-9.2c2.5-2.5,6.6-2.5,9.2,0l28.4,28.4l60.7-60.7
				c2.5-2.5,6.6-2.5,9.2,0l9.2,9.2c2.5,2.5,2.5,6.6,0,9.2l-74.5,74.5C75.9,124.5,71.8,124.5,69.3,121.9L69.3,121.9z"/>
		</g>
		<g>
			<path class="st3" d="M100.1,109.3v25.8c0,1-0.8,1.8-1.8,1.8H16.9c-1,0-1.8-0.8-1.8-1.8V34.8c0-1,0.8-1.8,1.8-1.8h12.4v10.6
				c0,1.9,1.6,3.5,3.5,3.5h49.6c1.9,0,3.5-1.6,3.5-3.5V33h12.4c1,0,1.8,0.8,1.8,1.8v19.8l14.2-14.2V33c0-7.8-6.3-14.2-14.2-14.2
				H76.5C76.5,8.5,68,0,57.6,0S38.7,8.5,38.7,18.9H15.1C7.3,18.9,1,25.2,1,33v103.9c0,7.8,6.3,14.2,14.2,14.2h85
				c7.8,0,14.2-6.3,14.2-14.2V95.2L100.1,109.3z M57.6,11.8c3.9,0,7.1,3.2,7.1,7.1c0,3.9-3.2,7.1-7.1,7.1c-3.9,0-7.1-3.2-7.1-7.1
				C50.5,15,53.7,11.8,57.6,11.8z"/>
		</g>
	</g>
</g>
</svg>
